<?xml version="1.0" standalone="no"?>
<!DOCTYPE svg PUBLIC "-//W3C//DTD SVG 20010904//EN"
 "http://www.w3.org/TR/2001/REC-SVG-20010904/DTD/svg10.dtd">
<svg version="1.0" xmlns="http://www.w3.org/2000/svg"
 width="1280.000000pt" height="1266.000000pt" viewBox="0 0 1280.000000 1266.000000"
 preserveAspectRatio="xMidYMid meet">
<metadata>
Created by potrace 1.15, written by Peter Selinger 2001-2017
</metadata>
<g transform="translate(0.000000,1266.000000) scale(0.100000,-0.100000)"
fill="#000000" stroke="none">
<path d="M11618 12655 c-2 -3 -127 -5 -276 -6 l-271 -1 -118 -111 c-217 -206
-406 -373 -719 -635 -200 -167 -183 -159 -380 -186 -260 -36 -593 -60 -1089
-77 -383 -13 -2181 -7 -2715 10 -1908 61 -3707 158 -4648 253 l-113 11 -209
216 c-114 119 -253 268 -309 331 -131 149 -156 163 -276 157 -71 -3 -107 -10
-170 -35 -142 -57 -261 -162 -286 -254 -9 -33 -7 -46 11 -83 32 -67 363 -381
723 -686 30 -26 32 -31 77 -244 298 -1419 248 -3685 -106 -4795 -76 -239 -148
-394 -250 -537 -49 -69 -34 -63 -264 -104 -147 -26 -191 -45 -214 -93 -23 -48
-20 -83 9 -111 34 -35 83 -33 288 15 94 23 184 43 198 46 44 10 213 -102 394
-259 486 -423 1227 -1262 1856 -2102 655 -874 1103 -1630 1169 -1971 l11 -59
-94 -226 c-130 -310 -142 -358 -142 -579 0 -198 11 -255 70 -377 41 -83 108
-149 162 -159 146 -27 283 180 366 556 14 63 31 153 37 200 11 78 70 249 173
500 l23 54 179 93 c1104 568 3281 1354 5050 1824 1100 291 2015 445 2452 410
96 -7 119 -13 165 -39 70 -39 100 -45 149 -31 83 25 160 143 207 319 22 81 25
117 26 250 1 182 -19 268 -76 333 -34 37 -278 160 -1583 792 -225 109 -411
200 -413 201 -6 4 -41 146 -71 289 -151 708 -268 1764 -332 2975 -17 326 -23
1360 -10 1630 21 422 58 742 109 942 l17 66 350 243 c472 327 807 572 1049
766 231 185 303 248 295 257 -18 19 -463 38 -481 21z m-9698 -1165 c2641 -201
6270 -289 7515 -184 l80 7 -250 -203 c-366 -298 -742 -612 -977 -819 -138
-120 -222 -187 -248 -196 -58 -20 -314 -71 -450 -90 -737 -98 -1856 -79 -3220
56 -451 44 -1241 144 -1315 166 -11 3 -38 22 -60 41 -60 53 -945 896 -1135
1082 l-165 160 45 -5 c25 -3 106 -9 180 -15z m-410 -530 c135 -108 485 -382
778 -609 293 -227 537 -421 542 -431 14 -26 48 -288 60 -465 14 -201 14 -730
0 -980 -40 -741 -145 -1394 -276 -1722 -15 -37 -51 -108 -81 -156 -50 -83 -53
-91 -38 -107 15 -17 15 -19 -2 -24 -508 -148 -1509 -426 -1537 -426 -2 0 14
42 36 93 183 422 320 1128 383 1972 70 947 35 2035 -93 2873 -16 100 -26 181
-23 180 3 -2 116 -91 251 -198z m8446 -36 c-111 -993 -46 -2815 154 -4329 34
-256 86 -583 124 -779 14 -72 24 -131 22 -133 -1 -2 -210 96 -463 218 l-460
221 -181 547 c-252 759 -338 1043 -447 1480 -188 753 -244 1333 -165 1720 41
201 31 187 230 338 312 238 1189 865 1198 858 2 -2 -4 -65 -12 -141z m-6361
-1144 c273 -43 1191 -130 1740 -164 801 -50 1679 -47 2143 8 56 7 102 10 102
8 0 -3 -37 -44 -83 -91 -177 -184 -345 -389 -421 -513 -55 -89 -52 -88 -265
-132 -280 -59 -647 -99 -1151 -126 -204 -11 -950 -14 -1023 -4 -43 6 -66 26
-569 496 -287 269 -532 498 -543 509 -23 23 -18 23 70 9z m4551 -338 c0 -278
12 -410 65 -722 95 -559 267 -1193 569 -2094 49 -148 88 -271 86 -273 -1 -2
-126 55 -277 127 l-274 130 -42 88 c-23 48 -157 321 -297 607 -270 552 -309
637 -385 829 -98 245 -151 449 -152 579 0 43 11 121 26 192 l27 120 77 95 c91
114 303 333 459 476 62 57 114 104 115 104 1 0 2 -116 3 -258z m-4691 4 c280
-219 765 -607 765 -612 0 -5 -30 -2 -118 13 -33 5 -31 3 104 -183 81 -110 143
-207 152 -233 24 -73 20 -360 -7 -541 -40 -269 -120 -568 -191 -714 -16 -34
-61 -105 -99 -159 -38 -54 -71 -102 -73 -107 -2 -5 -151 -52 -333 -104 -181
-52 -413 -119 -515 -149 -102 -31 -186 -54 -187 -54 -1 1 14 46 33 101 121
346 217 948 265 1661 14 205 18 854 6 1083 -6 123 -5 152 5 146 7 -4 94 -71
193 -148z m3199 -1108 c-63 -106 -114 -180 -131 -190 -36 -23 -179 -70 -308
-102 -242 -61 -479 -79 -659 -52 -60 9 -114 20 -120 24 -47 35 -405 334 -420
351 l-19 21 159 0 c434 0 1107 46 1449 99 66 10 127 19 136 20 12 1 -15 -51
-87 -171z m593 -327 c80 -202 210 -486 372 -808 66 -134 121 -244 121 -246 0
-2 -39 -3 -87 -2 -86 2 -94 4 -298 87 -115 47 -268 107 -340 133 -71 25 -139
50 -150 54 -15 6 -29 33 -48 92 -43 134 -59 247 -55 389 l4 126 108 214 c118
233 120 237 185 328 l45 63 38 -132 c22 -73 68 -207 105 -298z m-2371 257 c71
-68 212 -192 312 -277 l181 -154 21 -90 c24 -101 27 -254 7 -401 l-12 -89 -70
-19 c-79 -20 -806 -198 -811 -198 -2 0 5 20 16 45 61 142 137 423 175 648 35
206 47 350 43 515 -2 78 -1 142 2 142 3 0 64 -55 136 -122z m1341 -640 c-54
-91 -45 -88 -136 -44 -83 41 -93 55 -38 57 18 0 68 8 112 18 44 9 82 16 84 14
2 -1 -8 -21 -22 -45z m-327 -198 c0 -7 -113 -51 -117 -46 -3 2 -1 31 3 65 l7
60 53 -37 c30 -20 54 -39 54 -42z m530 -34 c7 -33 6 -36 -15 -36 -33 0 -39 15
-19 50 21 34 23 33 34 -14z m-370 -189 c-35 -23 -65 -47 -67 -53 -2 -6 28 -46
67 -90 l71 -79 -7 -110 c-11 -178 -18 -240 -29 -235 -5 3 -31 53 -56 111 -51
117 -109 227 -176 333 -25 37 -42 70 -39 73 3 3 56 20 118 38 62 18 124 38
138 43 49 21 43 11 -20 -31z m-625 -190 c40 -28 76 -66 108 -112 62 -91 189
-348 223 -450 25 -78 26 -85 19 -247 -3 -93 -3 -168 2 -168 4 0 44 23 88 50
44 28 82 50 86 50 10 0 -232 -667 -260 -717 -7 -14 -10 -13 -16 8 -4 13 -38
87 -76 164 -192 395 -494 815 -841 1170 -76 77 -138 141 -138 142 0 5 696 150
730 152 8 0 42 -19 75 -42z m1300 -97 c305 -30 301 -28 165 -55 -155 -31 -300
-66 -449 -110 -68 -19 -125 -34 -127 -32 -2 1 3 45 11 97 8 52 15 100 15 107
0 25 58 24 385 -7z m-2480 -183 c39 -28 128 -108 199 -177 348 -337 678 -794
852 -1179 97 -216 134 -357 134 -516 0 -95 -1 -98 -61 -243 -65 -156 -360
-847 -404 -946 l-26 -59 -88 179 c-157 321 -332 616 -626 1059 -392 591 -801
1139 -1183 1588 -8 9 -13 19 -11 22 5 4 677 202 964 283 77 22 149 40 160 41
11 0 52 -23 90 -52z m3466 -177 c100 -42 409 -202 581 -302 125 -72 139 -83
117 -89 -619 -185 -1451 -520 -2314 -932 -132 -63 -242 -114 -243 -112 -2 2
19 72 46 157 68 206 157 494 240 773 80 269 49 235 292 314 304 99 695 180
1015 210 163 15 186 13 266 -19z m-4984 -315 c540 -605 1368 -1790 1723 -2465
162 -310 215 -449 232 -622 l10 -107 -257 -583 c-141 -320 -260 -590 -264
-601 -6 -15 -18 3 -55 79 -324 675 -1118 1792 -1970 2774 -376 433 -781 849
-1026 1054 -52 44 -99 83 -103 87 -5 4 17 14 50 24 268 76 941 274 1218 359
187 57 343 103 346 102 4 0 47 -46 96 -101z m6307 -442 c190 -121 837 -551
854 -567 10 -10 1 -15 -40 -25 -773 -192 -2284 -732 -4174 -1492 -179 -72
-327 -129 -329 -127 -1 1 75 235 169 518 l173 514 99 53 c54 29 234 117 399
197 878 422 1742 773 2315 941 136 39 321 83 359 84 14 1 85 -38 175 -96z
m1642 -1100 c192 -130 508 -343 703 -472 l354 -236 -64 -7 c-1011 -113 -2455
-484 -4244 -1092 -880 -298 -1869 -686 -2500 -980 -110 -51 -201 -92 -202 -92
-1 1 21 64 49 141 74 206 137 384 255 720 57 165 116 332 129 371 24 65 28 71
67 86 23 9 215 87 427 173 2199 894 3994 1518 4671 1624 4 1 164 -106 355
-236z"/>
</g>
</svg>
